<svg width="33" height="31" viewBox="0 0 33 31" fill="none" xmlns="http://www.w3.org/2000/svg">
<path d="M16.7083 30.8141C15.6853 30.8141 14.7216 30.3182 14.0396 29.4541L11.8158 26.6207C11.7713 26.5641 11.5934 26.4932 11.5193 26.4791H10.778C4.59575 26.4791 0.770752 24.8782 0.770752 16.9166V9.83325C0.770752 3.57158 4.22511 0.270752 10.778 0.270752H22.6385C29.1914 0.270752 32.6458 3.57158 32.6458 9.83325V16.9166C32.6458 23.1782 29.1914 26.4791 22.6385 26.4791H21.8972C21.7786 26.4791 21.6748 26.5357 21.6007 26.6207L19.3769 29.4541C18.6949 30.3182 17.7312 30.8141 16.7083 30.8141ZM10.778 2.61752C5.47046 2.61752 3.24992 4.76158 3.24992 9.83325V16.9166C3.24992 23.3199 5.55612 23.9999 11.0416 23.9999H11.7499C12.506 23.9999 13.1353 24.7649 13.5949 25.3457L15.8187 28.1791C16.3376 28.8307 17.0789 28.8307 17.5978 28.1791L19.8216 25.3457C20.3109 24.7224 20.8512 23.9999 21.6666 23.9999H22.6385C27.946 23.9999 30.4219 21.9882 30.4219 16.9166V9.83325C30.4219 4.76158 27.946 2.61752 22.6385 2.61752H10.778Z" fill="#3D3D3D"/>
<path d="M15.9999 15.4998C15.2066 15.4998 14.5833 14.8623 14.5833 14.0832C14.5833 13.304 15.2208 12.6665 15.9999 12.6665C16.7791 12.6665 17.4166 13.304 17.4166 14.0832C17.4166 14.8623 16.7933 15.4998 15.9999 15.4998Z" fill="#3D3D3D"/>
<path d="M21.6667 15.4998C20.8733 15.4998 20.25 14.8623 20.25 14.0832C20.25 13.304 20.8875 12.6665 21.6667 12.6665C22.4458 12.6665 23.0833 13.304 23.0833 14.0832C23.0833 14.8623 22.46 15.4998 21.6667 15.4998Z" fill="#3D3D3D"/>
<path d="M10.3332 15.4998C9.53984 15.4998 8.9165 14.8623 8.9165 14.0832C8.9165 13.304 9.554 12.6665 10.3332 12.6665C11.1123 12.6665 11.7498 13.304 11.7498 14.0832C11.7498 14.8623 11.1265 15.4998 10.3332 15.4998Z" fill="#3D3D3D"/>
</svg>
