<svg width="29" height="29" viewBox="0 0 29 29" fill="none" xmlns="http://www.w3.org/2000/svg">
<path d="M5.25057 5.9996H7.91647C8.69887 5.9996 9.33314 6.63386 9.33314 7.41626C9.33314 8.19867 8.69887 8.83293 7.91647 8.83293H4.3748C4.29118 8.83293 4.20926 8.82568 4.12961 8.81179C3.94834 9.3769 3.7798 9.97069 3.62417 10.5932C3.53214 10.9613 3.44974 11.319 3.37692 11.6663H6.4998C7.28221 11.6663 7.91647 12.3005 7.91647 13.0829C7.91647 13.8653 7.28221 14.4996 6.4998 14.4996H2.97879C2.94752 15.0517 2.95176 15.5633 2.99102 16.034C3.05227 16.7682 3.66603 17.3329 4.40276 17.3329H17.8331C19.3979 17.3329 20.6665 18.6015 20.6665 20.1663V24.7704C20.6665 25.3572 21.1422 25.8329 21.729 25.8329C22.443 25.8329 23.0478 25.3064 23.146 24.5991L25.6751 6.38937C25.6931 6.26022 25.7021 6.12999 25.7021 5.9996C25.7021 4.43479 24.4335 3.16626 22.8687 3.16626H8.50465C7.5521 3.16626 6.6633 3.64491 6.13904 4.44021C5.82456 4.91728 5.5283 5.43706 5.25057 5.9996ZM0.167496 16.2695C0.0188274 14.4872 0.259306 12.3705 0.875435 9.906C1.57865 7.09314 2.54075 4.75081 3.77344 2.88082C4.82195 1.29022 6.59955 0.33293 8.50465 0.33293H22.8687C25.9983 0.33293 28.5354 2.86998 28.5354 5.9996C28.5354 6.26038 28.5174 6.52085 28.4815 6.77915L25.9524 24.9889C25.6596 27.0969 23.8572 28.6663 21.729 28.6663C19.5774 28.6663 17.8331 26.922 17.8331 24.7704V20.1663H4.40274C2.19251 20.1662 0.351219 18.4721 0.167496 16.2695Z" fill="#3D3D3D"/>
</svg>
