<svg width="23" height="16" viewBox="0 0 23 16" fill="none" xmlns="http://www.w3.org/2000/svg">
<g clipPath="url(#clip0_10_2966)">
<path d="M17.0667 1.1733C17.0667 0.544945 16.5572 0.0355225 15.9289 0.0355225H1.13778C0.509421 0.0355225 -1.90735e-06 0.544945 -1.90735e-06 1.1733C-1.90735e-06 1.80166 0.509421 2.31108 1.13778 2.31108H15.9289C16.5572 2.31108 17.0667 1.80161 17.0667 1.1733V1.1733ZM1.13778 6.86219H21.6178C22.2461 6.86219 22.7556 7.37166 22.7556 7.99997C22.7556 8.62832 22.2461 9.13775 21.6178 9.13775H1.13778C0.509421 9.13775 -1.90735e-06 8.62832 -1.90735e-06 7.99997C-1.90735e-06 7.37166 0.509421 6.86219 1.13778 6.86219ZM1.13778 13.6889H11.3778C12.0061 13.6889 12.5156 14.1983 12.5156 14.8266C12.5156 15.4549 12.0061 15.9644 11.3778 15.9644H1.13778C0.509421 15.9644 -1.90735e-06 15.4549 -1.90735e-06 14.8266C-1.90735e-06 14.1983 0.509421 13.6889 1.13778 13.6889Z" fill="#3D3D3D"/>
</g>
<defs>
<clipPath id="clip0_10_2966">
<rect width="22.7556" height="16" fill="white" transform="matrix(-1 0 0 1 22.7556 0)"/>
</clipPath>
</defs>
</svg>
