<svg width="24" height="22" viewBox="0 0 24 22" fill="none" xmlns="http://www.w3.org/2000/svg">
<path d="M13.0999 0C10.6816 0.0117698 8.33556 0.825421 6.4293 2.31348C4.52304 3.80153 3.16426 5.87992 2.56586 8.223L1.83386 7.116C1.76456 7.0001 1.67251 6.89944 1.56325 6.82009C1.454 6.74073 1.3298 6.68433 1.19815 6.65428C1.0665 6.62422 0.930135 6.62114 0.797265 6.64522C0.664395 6.6693 0.537779 6.72004 0.425051 6.79438C0.312323 6.86872 0.215819 6.96512 0.141358 7.07777C0.0668978 7.19042 0.0160235 7.31699 -0.00819679 7.44983C-0.0324171 7.58267 -0.0294815 7.71905 0.000432834 7.85073C0.0303472 7.9824 0.0866206 8.10666 0.16586 8.216L2.36586 11.55C2.51868 11.7638 2.74399 11.9149 2.99986 11.975C3.26113 12.0268 3.53231 11.9748 3.75586 11.83L7.05586 9.607C7.16964 9.53595 7.26796 9.44273 7.34497 9.33289C7.42198 9.22306 7.47611 9.09885 7.50412 8.96767C7.53214 8.83648 7.53348 8.701 7.50806 8.56929C7.48264 8.43758 7.43097 8.31233 7.35615 8.20099C7.28132 8.08966 7.18486 7.99451 7.0725 7.92123C6.96015 7.84794 6.8342 7.79801 6.70215 7.77441C6.5701 7.7508 6.43465 7.75401 6.30386 7.78383C6.17307 7.81365 6.04962 7.86948 5.94086 7.948L4.43986 8.96C4.83934 7.33839 5.68659 5.86172 6.88494 4.69847C8.0833 3.53521 9.58449 2.73222 11.2173 2.38111C12.85 2.03 14.5486 2.14491 16.1192 2.71272C17.6898 3.28054 19.0692 4.27839 20.1 5.59244C21.1307 6.90649 21.7714 8.48382 21.9488 10.1445C22.1263 11.8051 21.8333 13.4822 21.1035 14.9843C20.3736 16.4865 19.2362 17.7533 17.8211 18.6401C16.4059 19.527 14.77 19.9982 13.0999 20C11.6682 19.9961 10.2586 19.6466 8.99101 18.9812C7.72338 18.3158 6.63516 17.3542 5.81886 16.178C5.74575 16.0657 5.65083 15.9693 5.53974 15.8944C5.42864 15.8196 5.30364 15.7678 5.17214 15.7422C5.04065 15.7166 4.90535 15.7176 4.77427 15.7453C4.64319 15.773 4.51901 15.8267 4.40911 15.9033C4.2992 15.9799 4.2058 16.0778 4.13447 16.1912C4.06313 16.3046 4.0153 16.4312 3.99382 16.5634C3.97235 16.6956 3.97766 16.8308 4.00945 16.961C4.04123 17.0911 4.09884 17.2136 4.17886 17.321C5.50593 19.2342 7.41169 20.6712 9.61607 21.4209C11.8204 22.1706 14.2072 22.1934 16.4255 21.4859C18.6438 20.7785 20.5767 19.3782 21.94 17.4907C23.3034 15.6033 24.0254 13.3282 23.9999 11C24.0097 8.09691 22.8677 5.30844 20.8243 3.24629C18.7808 1.18413 16.0029 0.0166663 13.0999 0Z" fill="CurrentColor"/>
<path d="M13 4.94995C12.7348 4.94995 12.4804 5.05531 12.2929 5.24284C12.1054 5.43038 12 5.68473 12 5.94995V11C12.0043 11.2643 12.109 11.5171 12.293 11.707L15.293 14.734C15.4813 14.9192 15.7344 15.0237 15.9986 15.025C16.2627 15.0263 16.5169 14.9244 16.707 14.741C16.8953 14.5542 17.0017 14.3004 17.0028 14.0352C17.0039 13.77 16.8997 13.5153 16.713 13.327L14 10.589V5.94995C14 5.68473 13.8946 5.43038 13.7071 5.24284C13.5196 5.05531 13.2652 4.94995 13 4.94995Z" fill="CurrentColor"/>
</svg>
