<svg width="24" height="24" viewBox="0 0 24 24" fill="none" xmlns="http://www.w3.org/2000/svg">
<path fill-rule="evenodd" clip-rule="evenodd" d="M22 10.7602V17.5968C22 19.4377 20.5076 20.9301 18.6667 20.9301H17.4444C16.8922 20.9301 16.4444 20.4824 16.4444 19.9301V19.7079C16.4444 19.1556 16.8922 18.7079 17.4444 18.7079H18.6667C19.2803 18.7079 19.7778 18.2104 19.7778 17.5968V10.7602C19.7778 10.4142 19.6165 10.0878 19.3416 9.87761L12.6749 4.77957C12.2765 4.47492 11.7235 4.47492 11.3251 4.77957L4.65839 9.87761C4.38348 10.0878 4.22222 10.4142 4.22222 10.7602V17.5968C4.22222 18.2104 4.71968 18.7079 5.33333 18.7079H6.55556C7.10784 18.7079 7.55556 19.1556 7.55556 19.7079V19.9301C7.55556 20.4824 7.10784 20.9301 6.55556 20.9301H5.33333C3.49239 20.9301 2 19.4377 2 17.5968V10.7602C2 9.722 2.48377 8.74305 3.3085 8.11237L9.97517 3.01433C11.1704 2.10036 12.8297 2.10037 14.0248 3.01433L20.6915 8.11237C21.5162 8.74305 22 9.722 22 10.7602ZM11.8891 11.1523H12.1113C13.7682 11.1523 15.1113 12.4955 15.1113 14.1523V17.7079C15.1113 19.3648 13.7682 20.7079 12.1113 20.7079H11.8891C10.2323 20.7079 8.88911 19.3648 8.88911 17.7079V14.1523C8.88911 12.4955 10.2323 11.1523 11.8891 11.1523ZM13.1113 14.1523C13.1113 13.6001 12.6636 13.1523 12.1113 13.1523H11.8891C11.3368 13.1523 10.8891 13.6001 10.8891 14.1523V17.7079C10.8891 18.2602 11.3368 18.7079 11.8891 18.7079H12.1113C12.6636 18.7079 13.1113 18.2602 13.1113 17.7079V14.1523Z" fill="CurrentColor"/>
</svg>
