<svg width="24" height="24" viewBox="0 0 24 24" fill="none" xmlns="http://www.w3.org/2000/svg">
<path fill-rule="evenodd" clip-rule="evenodd" d="M9 2C7.34315 2 6 3.34315 6 5V5.17071C4.83481 5.58254 4 6.69378 4 8V8.17071C2.83481 8.58254 2 9.69378 2 11V19C2 20.6569 3.34315 22 5 22H19C20.6569 22 22 20.6569 22 19V11C22 9.69378 21.1652 8.58254 20 8.17071V8C20 6.69378 19.1652 5.58254 18 5.17071V5C18 3.34315 16.6569 2 15 2H9ZM17.001 7C17.0007 7 17.0003 7 17 7L16 7H8L7 7C6.99967 7 6.99934 7 6.99901 7C6.44718 7.00053 6 7.44804 6 8H18C18 7.44804 17.5528 7.00053 17.001 7ZM8 5H16C16 4.44772 15.5523 4 15 4H9C8.44772 4 8 4.44772 8 5ZM19 10L19.0014 10C19.553 10.0008 20 10.4482 20 11V19C20 19.5523 19.5523 20 19 20H5C4.44772 20 4 19.5523 4 19V11C4 10.448 4.44718 10.0005 4.99901 10H5L6 10H18L19 10Z" fill="#3D3D3D"/>
</svg>
