<svg width="406" height="253" viewBox="0 0 406 253" fill="none" xmlns="http://www.w3.org/2000/svg">
<g clipPath="url(#clip0_14_50)">
<path d="M375.222 247.29H24.0103C17.5646 247.29 12.2469 242.063 12.2469 235.549V11.7413C12.2469 5.30769 17.484 0 24.0103 0H375.222C381.667 0 386.985 5.22727 386.985 11.7413V235.629C386.985 242.063 381.748 247.29 375.222 247.29Z" fill="#455A64"/>
<path d="M391.658 253H14.3417C6.44572 253 0 246.566 0 238.685V231.367H406V238.685C406 246.566 399.554 253 391.658 253Z" fill="#455A64"/>
<path d="M162.674 229.035L167.75 236.996H238.572L243.245 229.035H162.674Z" fill="#263238"/>
<path d="M383.762 229.035C383.762 229.196 300.612 229.276 198.045 229.276C95.4773 229.276 12.3274 229.196 12.3274 229.035C12.3274 228.874 95.4773 228.794 198.045 228.794C300.612 228.794 383.762 228.874 383.762 229.035Z" fill="#263238"/>
<path d="M372.16 222.521H25.6218C24.1715 222.521 22.9629 221.315 22.9629 219.867V16.8881C22.9629 15.4405 24.1715 14.2343 25.6218 14.2343H372.16C373.61 14.2343 374.819 15.4405 374.819 16.8881V219.867C374.738 221.315 373.61 222.521 372.16 222.521Z" fill="#EBEBEB"/>
<path d="M374.416 222.762H22.6406L22.9629 29.7552H374.416V222.762Z" fill="white"/>
<path d="M51.8881 22.2762C51.8881 23.8042 50.5989 25.0909 49.0681 25.0909C47.5372 25.0909 46.2481 23.8042 46.2481 22.2762C46.2481 20.7483 47.5372 19.4615 49.0681 19.4615C50.5989 19.4615 51.8881 20.7483 51.8881 22.2762Z" fill="#263238"/>
<path d="M34.8069 22.2762C34.8069 23.8042 33.5178 25.0909 31.9869 25.0909C30.456 25.0909 29.1669 23.8042 29.1669 22.2762C29.1669 20.7483 30.456 19.4615 31.9869 19.4615C33.5983 19.4615 34.8069 20.7483 34.8069 22.2762Z" fill="#263238"/>
<path d="M43.0252 22.2762C43.0252 23.8042 41.7361 25.0909 40.2052 25.0909C38.6743 25.0909 37.3852 23.8042 37.3852 22.2762C37.3852 20.7483 38.6743 19.4615 40.2052 19.4615C41.7361 19.4615 43.0252 20.7483 43.0252 22.2762Z" fill="#263238"/>
<rect x="144" y="106" width="116" height="27" rx="13.5" fill="#C400C4"/>
<path d="M182.498 116.718L180.743 123H179.258L178.079 118.527L176.846 123L175.37 123.009L173.678 116.718H175.028L176.135 121.596L177.413 116.718H178.817L180.023 121.569L181.139 116.718H182.498ZM182.997 120.489C182.997 119.985 183.096 119.538 183.294 119.148C183.498 118.758 183.771 118.458 184.113 118.248C184.461 118.038 184.848 117.933 185.274 117.933C185.646 117.933 185.97 118.008 186.246 118.158C186.528 118.308 186.753 118.497 186.921 118.725V118.014H188.19V123H186.921V122.271C186.759 122.505 186.534 122.7 186.246 122.856C185.964 123.006 185.637 123.081 185.265 123.081C184.845 123.081 184.461 122.973 184.113 122.757C183.771 122.541 183.498 122.238 183.294 121.848C183.096 121.452 182.997 120.999 182.997 120.489ZM186.921 120.507C186.921 120.201 186.861 119.94 186.741 119.724C186.621 119.502 186.459 119.334 186.255 119.22C186.051 119.1 185.832 119.04 185.598 119.04C185.364 119.04 185.148 119.097 184.95 119.211C184.752 119.325 184.59 119.493 184.464 119.715C184.344 119.931 184.284 120.189 184.284 120.489C184.284 120.789 184.344 121.053 184.464 121.281C184.59 121.503 184.752 121.674 184.95 121.794C185.154 121.914 185.37 121.974 185.598 121.974C185.832 121.974 186.051 121.917 186.255 121.803C186.459 121.683 186.621 121.515 186.741 121.299C186.861 121.077 186.921 120.813 186.921 120.507ZM190.887 119.049V121.461C190.887 121.629 190.926 121.752 191.004 121.83C191.088 121.902 191.226 121.938 191.418 121.938H192.003V123H191.211C190.149 123 189.618 122.484 189.618 121.452V119.049H189.024V118.014H189.618V116.781H190.887V118.014H192.003V119.049H190.887ZM192.586 120.507C192.586 119.991 192.691 119.541 192.901 119.157C193.111 118.767 193.402 118.467 193.774 118.257C194.146 118.041 194.572 117.933 195.052 117.933C195.67 117.933 196.18 118.089 196.582 118.401C196.99 118.707 197.263 119.139 197.401 119.697H196.042C195.97 119.481 195.847 119.313 195.673 119.193C195.505 119.067 195.295 119.004 195.043 119.004C194.683 119.004 194.398 119.136 194.188 119.4C193.978 119.658 193.873 120.027 193.873 120.507C193.873 120.981 193.978 121.35 194.188 121.614C194.398 121.872 194.683 122.001 195.043 122.001C195.553 122.001 195.886 121.773 196.042 121.317H197.401C197.263 121.857 196.99 122.286 196.582 122.604C196.174 122.922 195.664 123.081 195.052 123.081C194.572 123.081 194.146 122.976 193.774 122.766C193.402 122.55 193.111 122.25 192.901 121.866C192.691 121.476 192.586 121.023 192.586 120.507ZM201.132 117.942C201.51 117.942 201.846 118.026 202.14 118.194C202.434 118.356 202.662 118.599 202.824 118.923C202.992 119.241 203.076 119.625 203.076 120.075V123H201.816V120.246C201.816 119.85 201.717 119.547 201.519 119.337C201.321 119.121 201.051 119.013 200.709 119.013C200.361 119.013 200.085 119.121 199.881 119.337C199.683 119.547 199.584 119.85 199.584 120.246V123H198.324V116.34H199.584V118.635C199.746 118.419 199.962 118.251 200.232 118.131C200.502 118.005 200.802 117.942 201.132 117.942ZM208.896 123.081C208.416 123.081 207.984 122.976 207.6 122.766C207.216 122.55 206.913 122.247 206.691 121.857C206.475 121.467 206.367 121.017 206.367 120.507C206.367 119.997 206.478 119.547 206.7 119.157C206.928 118.767 207.237 118.467 207.627 118.257C208.017 118.041 208.452 117.933 208.932 117.933C209.412 117.933 209.847 118.041 210.237 118.257C210.627 118.467 210.933 118.767 211.155 119.157C211.383 119.547 211.497 119.997 211.497 120.507C211.497 121.017 211.38 121.467 211.146 121.857C210.918 122.247 210.606 122.55 210.21 122.766C209.82 122.976 209.382 123.081 208.896 123.081ZM208.896 122.001C209.124 122.001 209.337 121.944 209.535 121.83C209.739 121.716 209.901 121.548 210.021 121.326C210.141 121.098 210.201 120.825 210.201 120.507C210.201 120.189 210.141 119.919 210.021 119.697C209.901 119.469 209.742 119.298 209.544 119.184C209.352 119.07 209.142 119.013 208.914 119.013C208.56 119.013 208.26 119.145 208.014 119.409C207.768 119.667 207.645 120.033 207.645 120.507C207.645 120.981 207.765 121.35 208.005 121.614C208.245 121.872 208.542 122.001 208.896 122.001ZM214.707 119.049H213.834V123H212.556V119.049H211.989V118.014H212.556V117.762C212.556 117.15 212.73 116.7 213.078 116.412C213.426 116.124 213.951 115.989 214.653 116.007V117.069C214.347 117.063 214.134 117.114 214.014 117.222C213.894 117.33 213.834 117.525 213.834 117.807V118.014H214.707V119.049ZM217.81 119.049H216.937V123H215.659V119.049H215.092V118.014H215.659V117.762C215.659 117.15 215.833 116.7 216.181 116.412C216.529 116.124 217.054 115.989 217.756 116.007V117.069C217.45 117.063 217.237 117.114 217.117 117.222C216.997 117.33 216.937 117.525 216.937 117.807V118.014H217.81V119.049ZM219.886 116.34V123H218.626V116.34H219.886ZM221.77 117.42C221.548 117.42 221.362 117.351 221.212 117.213C221.068 117.069 220.996 116.892 220.996 116.682C220.996 116.472 221.068 116.298 221.212 116.16C221.362 116.016 221.548 115.944 221.77 115.944C221.992 115.944 222.175 116.016 222.319 116.16C222.469 116.298 222.544 116.472 222.544 116.682C222.544 116.892 222.469 117.069 222.319 117.213C222.175 117.351 221.992 117.42 221.77 117.42ZM222.391 118.014V123H221.131V118.014H222.391ZM226.399 117.942C226.993 117.942 227.473 118.131 227.839 118.509C228.205 118.881 228.388 119.403 228.388 120.075V123H227.128V120.246C227.128 119.85 227.029 119.547 226.831 119.337C226.633 119.121 226.363 119.013 226.021 119.013C225.673 119.013 225.397 119.121 225.193 119.337C224.995 119.547 224.896 119.85 224.896 120.246V123H223.636V118.014H224.896V118.635C225.064 118.419 225.277 118.251 225.535 118.131C225.799 118.005 226.087 117.942 226.399 117.942ZM234.221 120.39C234.221 120.558 234.209 120.714 234.185 120.858H230.54C230.564 121.224 230.687 121.512 230.909 121.722C231.131 121.932 231.407 122.037 231.737 122.037C232.205 122.037 232.538 121.836 232.736 121.434H234.095C233.951 121.914 233.675 122.31 233.267 122.622C232.859 122.928 232.358 123.081 231.764 123.081C231.284 123.081 230.852 122.976 230.468 122.766C230.09 122.55 229.793 122.247 229.577 121.857C229.367 121.467 229.262 121.017 229.262 120.507C229.262 119.991 229.367 119.538 229.577 119.148C229.787 118.758 230.081 118.458 230.459 118.248C230.837 118.038 231.272 117.933 231.764 117.933C232.238 117.933 232.661 118.035 233.033 118.239C233.411 118.443 233.702 118.731 233.906 119.103C234.116 119.475 234.221 119.904 234.221 120.39ZM232.916 120.093C232.91 119.745 232.793 119.472 232.565 119.274C232.343 119.07 232.064 118.968 231.728 118.968C231.41 118.968 231.143 119.07 230.927 119.274C230.711 119.472 230.582 119.745 230.54 120.093H232.916Z" fill="white"/>
<path d="M374.819 204.185H22.6406V222.843H374.819V204.185Z" fill="#263238"/>
<path d="M35.9349 215.605V216.168H33.1149V215.685L34.6458 214.238C35.0486 213.916 35.0486 213.675 35.0486 213.434C35.0486 213.112 34.8069 212.871 34.3235 212.871C33.9206 212.871 33.6789 213.032 33.4372 213.273L32.9538 212.871C33.276 212.469 33.7595 212.227 34.404 212.227C35.2098 212.227 35.7738 212.629 35.7738 213.353C35.7738 213.755 35.6932 214.077 35.1292 214.559L34.0818 215.525H35.9349V215.605Z" fill="white"/>
<path d="M36.3378 213.755C36.3378 213.514 36.4989 213.273 36.8212 213.273C37.0629 213.273 37.3046 213.434 37.3046 213.755C37.3046 213.996 37.1435 214.238 36.8212 214.238C36.4989 214.238 36.3378 213.996 36.3378 213.755ZM36.3378 215.846C36.3378 215.605 36.4989 215.364 36.8212 215.364C37.0629 215.364 37.3046 215.524 37.3046 215.846C37.3046 216.087 37.1435 216.329 36.8212 216.329C36.4989 216.248 36.3378 216.087 36.3378 215.846Z" fill="white"/>
<path d="M38.9966 212.469V216.248H38.2715V213.032H37.4658V212.469H38.9966Z" fill="white"/>
<path d="M43.1058 215.364H42.4612V216.248H41.8166V215.364H39.7218V214.881L41.5749 212.469H42.3001L40.5275 214.801H41.7361V213.997H42.3806V214.801H43.0252V215.364H43.1058Z" fill="white"/>
<path d="M337.917 213.836H49.3098V215.122H337.917V213.836Z" fill="white"/>
<path d="M139.308 212.469H49.1486V216.007H139.308V212.469Z" fill="#FF725E"/>
<path d="M142.209 214.479C142.209 216.892 140.275 218.902 137.777 218.902C135.36 218.902 133.346 216.972 133.346 214.479C133.346 212.066 135.28 210.056 137.777 210.056C140.275 210.136 142.209 212.066 142.209 214.479Z" fill="#FF725E"/>
<path d="M345.249 214.479C345.249 215.203 344.604 215.685 343.879 215.685C342.832 215.685 342.268 215.042 342.268 213.836C342.268 212.549 342.993 211.825 344.121 211.825C344.524 211.825 344.846 211.906 345.088 212.066L344.846 212.629C344.604 212.469 344.363 212.469 344.121 212.469C343.396 212.469 342.913 212.951 342.913 213.755C343.154 213.514 343.476 213.353 343.96 213.353C344.685 213.273 345.249 213.755 345.249 214.479ZM344.524 214.479C344.524 214.077 344.202 213.836 343.799 213.836C343.315 213.836 342.993 214.077 342.993 214.479C342.993 214.801 343.315 215.122 343.799 215.122C344.282 215.122 344.524 214.881 344.524 214.479Z" fill="white"/>
<path d="M345.571 213.192C345.571 212.951 345.732 212.71 346.055 212.71C346.296 212.71 346.538 212.871 346.538 213.192C346.538 213.434 346.377 213.675 346.055 213.675C345.813 213.594 345.571 213.434 345.571 213.192ZM345.571 215.203C345.571 214.962 345.732 214.72 346.055 214.72C346.296 214.72 346.538 214.881 346.538 215.203C346.538 215.444 346.377 215.685 346.055 215.685C345.813 215.685 345.571 215.525 345.571 215.203Z" fill="white"/>
<path d="M346.941 213.755C346.941 212.469 347.586 211.825 348.553 211.825C349.439 211.825 350.164 212.549 350.164 213.755C350.164 215.042 349.519 215.685 348.553 215.685C347.586 215.685 346.941 214.962 346.941 213.755ZM349.358 213.755C349.358 212.871 349.036 212.388 348.472 212.388C347.988 212.388 347.586 212.79 347.586 213.755C347.586 214.64 347.908 215.122 348.472 215.122C349.036 215.042 349.358 214.64 349.358 213.755Z" fill="white"/>
<path d="M350.567 213.755C350.567 212.469 351.211 211.825 352.178 211.825C353.065 211.825 353.79 212.549 353.79 213.755C353.79 215.042 353.145 215.685 352.178 215.685C351.292 215.685 350.567 214.962 350.567 213.755ZM353.065 213.755C353.065 212.871 352.742 212.388 352.178 212.388C351.695 212.388 351.292 212.79 351.292 213.755C351.292 214.64 351.614 215.122 352.178 215.122C352.662 215.042 353.065 214.64 353.065 213.755Z" fill="white"/>
<path d="M359.913 213.514H358.624V209.734H362.411V211.021H359.913V213.514Z" fill="white"/>
<path d="M362.411 218.42H358.624V214.64H359.913V217.133H362.411V218.42Z" fill="white"/>
<path d="M368.454 218.42H364.667V217.133H367.084V214.64H368.454V218.42Z" fill="white"/>
<path d="M368.454 213.514H367.084V211.021H364.667V209.734H368.454V213.514Z" fill="white"/>
<path d="M70.8224 41.2552H50.1155L39.7218 59.1888L50.1155 77.1224H70.8224L81.2161 59.1888L70.8224 41.2552Z" fill="#EBEBEB"/>
<path d="M51.8075 62.7273C50.9212 61.6819 49.9544 60.6364 49.3098 59.4301C48.6652 58.2238 48.2624 56.8567 48.4235 55.4895C48.5846 54.6854 48.9069 53.9616 48.9069 53.1574C48.9875 52.0315 48.5041 50.9056 48.9069 49.8602C49.5515 48.2518 51.7269 48.0105 53.0161 46.8847C54.0635 46 54.5469 44.6329 55.6749 43.8287C56.6418 43.1854 57.9309 43.1854 59.1395 43.3462C60.3481 43.507 61.4761 43.8287 62.6847 43.6679C63.4904 43.5874 64.2961 43.1854 65.1018 43.0245C65.9075 42.7833 66.7938 42.7833 67.5995 43.1854C68.3247 43.5874 68.7275 44.6329 68.2441 45.3567C69.6138 44.7133 71.3058 45.7588 71.7087 47.2063C72.1115 48.6539 71.3058 50.1819 70.1778 51.1469C69.0498 52.1119 67.519 52.514 66.0687 52.8357C61.8789 53.6399 57.3669 53.1574 53.8218 50.9056" fill="#263238"/>
<path d="M71.0641 67.1504C70.903 64.5769 70.1778 59.3497 69.5332 54.6049C68.8081 49.4581 64.2155 45.8392 59.0589 46.1609H58.5755C53.0966 46.8846 50.5989 51.9511 51.4046 57.4196L53.0161 77.1224H66.4715L66.1492 73.6643C66.0687 73.5839 71.3058 72.4581 71.0641 67.1504Z" fill="#FFBE9D"/>
<path d="M66.0687 73.5036C66.0687 73.5036 62.7652 73.9861 58.9784 71.9756C58.9784 71.9756 60.9121 75.6749 66.1492 74.8707L66.0687 73.5036Z" fill="#EB996E"/>
<path d="M67.7607 59.1084C67.8413 59.5105 67.519 59.8322 67.1161 59.9126C66.7133 59.993 66.3104 59.6713 66.3104 59.2692C66.2298 58.8671 66.5521 58.5455 66.955 58.465C67.3578 58.3846 67.7607 58.7063 67.7607 59.1084Z" fill="#263238"/>
<path d="M68.4858 57.1784C68.4053 57.2588 67.7607 56.8567 66.955 56.9371C66.1492 57.0175 65.5852 57.4196 65.5047 57.3392C65.4241 57.2588 65.5047 57.098 65.827 56.9371C66.0687 56.6959 66.4715 56.535 67.0355 56.4546C67.519 56.4546 68.0024 56.6154 68.2441 56.7763C68.4858 57.0175 68.5664 57.1784 68.4858 57.1784Z" fill="#263238"/>
<path d="M60.0258 59.6714C60.1064 60.0735 59.7841 60.3952 59.3812 60.4756C58.9784 60.556 58.5755 60.2343 58.5755 59.8322C58.495 59.4301 58.8172 59.1085 59.2201 59.028C59.623 58.9476 60.0258 59.2693 60.0258 59.6714Z" fill="#263238"/>
<path d="M60.5092 57.9021C60.4287 57.9825 59.7841 57.6609 58.9784 57.6609C58.1727 57.7413 57.6087 58.1434 57.5281 58.063C57.4475 57.9825 57.5281 57.8217 57.8504 57.6609C58.0921 57.4196 58.495 57.2588 59.059 57.1783C59.5424 57.1783 60.0258 57.3392 60.2675 57.5C60.4287 57.6609 60.5092 57.8217 60.5092 57.9021Z" fill="#263238"/>
<path d="M63.8933 63.7728C63.8933 63.6924 64.3767 63.612 65.1824 63.4511C65.4241 63.4511 65.5853 63.3707 65.5853 63.2099C65.5853 63.049 65.5047 62.8078 65.4241 62.5665C65.1824 62.084 64.9407 61.5211 64.699 61.0386C63.6515 58.8672 62.9264 57.0176 63.007 57.0176C63.0875 57.0176 63.9738 58.7064 65.0212 60.9581C65.263 61.5211 65.5047 62.0036 65.7464 62.4861C65.827 62.7274 65.9881 62.9686 65.9075 63.2903C65.827 63.4511 65.7464 63.612 65.5853 63.612C65.4241 63.6924 65.3435 63.6924 65.263 63.6924C64.3767 63.7728 63.8933 63.7728 63.8933 63.7728Z" fill="#263238"/>
<path d="M60.5092 54.6854C60.4287 54.9266 59.6229 54.8462 58.6561 55.007C57.6892 55.1679 56.9641 55.4896 56.8029 55.3287C56.7224 55.2483 56.8835 55.007 57.1252 54.7658C57.4475 54.5245 57.9309 54.2833 58.4949 54.2028C59.0589 54.1224 59.6229 54.1224 59.9452 54.2833C60.3481 54.4441 60.5092 54.6049 60.5092 54.6854Z" fill="#263238"/>
<path d="M68.083 54.8462C67.9218 55.007 67.3578 54.8462 66.7132 54.9266C66.0687 54.9266 65.5047 55.1679 65.3435 54.9266C65.263 54.8462 65.3435 54.6049 65.5852 54.4441C65.827 54.2833 66.2298 54.1224 66.7132 54.042C67.1967 54.042 67.5995 54.2028 67.8412 54.3637C68.0024 54.6049 68.083 54.7658 68.083 54.8462Z" fill="#263238"/>
<path d="M52.0492 61.2798C51.9686 61.2798 48.3429 60.4756 48.6652 64.0944C48.9875 67.7133 52.9355 66.507 52.9355 66.4266C52.9355 66.2658 52.0492 61.2798 52.0492 61.2798Z" fill="#FFBE9D"/>
<path d="M51.3241 65.2203C51.3241 65.2203 51.2435 65.3007 51.1629 65.3007C51.0824 65.3811 50.9212 65.3811 50.6795 65.3811C50.2766 65.3007 49.8738 64.7378 49.7932 64.014C49.7126 63.6923 49.7932 63.3706 49.8738 63.1294C49.9544 62.8881 50.1155 62.6469 50.2766 62.5665C50.4378 62.486 50.5989 62.5665 50.6795 62.7273C50.7601 62.8077 50.7601 62.8881 50.7601 62.8881C50.7601 62.8881 50.8406 62.8077 50.7601 62.6469C50.7601 62.5665 50.6795 62.486 50.5989 62.4056C50.5184 62.3252 50.3572 62.3252 50.2766 62.3252C50.0349 62.4056 49.7932 62.6469 49.6321 62.9686C49.5515 63.2902 49.4709 63.6119 49.5515 64.014C49.6321 64.7378 50.1155 65.3811 50.5989 65.4616C50.8406 65.542 51.0824 65.3811 51.1629 65.3007C51.3241 65.3007 51.3241 65.2203 51.3241 65.2203Z" fill="#EB996E"/>
<path d="M69.211 49.6189C68.9692 51.0664 66.0687 52.3531 63.571 52.2727C61.315 52.1923 60.1869 51.0664 58.5755 50.3426C57.5281 49.8601 57.5281 49.8601 56.1584 50.1014C55.0304 50.2622 54.4664 51.6294 53.8218 52.5944C55.0304 55.2482 54.5469 58.3042 54.0635 61.1189C53.9829 61.4405 53.9024 61.7622 53.6607 62.0035C53.2578 62.3252 52.6132 62.1643 52.2104 61.7622C51.5658 61.1993 51.2435 60.3147 51.0824 59.4301C50.5989 57.5 50.4378 55.4895 50.7601 53.5594C51.0824 51.6293 51.8881 49.6993 53.1772 48.2517C54.8692 46.4021 57.2864 45.3566 59.7841 45.2762C62.2818 45.1154 64.7795 45.9196 66.7938 47.2867C67.7607 47.7692 68.647 48.5734 69.211 49.6189Z" fill="#263238"/>
<path d="M64.3767 65.6224C63.7321 65.3007 63.1681 65.0594 62.5235 64.7378C62.4429 64.6573 62.2818 64.6573 62.2012 64.6573C62.0401 64.6573 61.9595 64.7378 61.8789 64.8986C61.4761 65.3811 61.3149 66.1853 61.6372 66.7483C61.9595 67.3112 62.7652 67.6329 63.4098 67.3916C64.0544 67.0699 64.3767 66.3462 64.3767 65.6224Z" fill="#EB996E"/>
<path d="M63.4904 67.4721C63.4904 67.4721 63.0875 67.7937 62.4429 67.5525C62.1207 67.4721 61.7178 67.2308 61.4761 66.7483C61.2344 66.3462 61.1538 65.7833 61.3149 65.2203C61.3955 64.9791 61.5567 64.7378 61.7984 64.577C61.8789 64.4965 61.9595 64.4161 62.1207 64.3357C62.2012 64.2553 62.5235 64.2553 62.6041 64.3357C63.0069 64.577 63.3292 64.7378 63.571 64.9791C64.135 65.3007 64.4572 65.6224 64.3767 65.6224C64.3767 65.7028 63.9738 65.542 63.4098 65.2203C63.0875 65.0595 62.7652 64.8986 62.4429 64.7378C62.3624 64.7378 62.3624 64.7378 62.2818 64.7378C62.2012 64.8182 62.1207 64.8182 62.0401 64.8986C61.8789 65.0595 61.7984 65.2203 61.7178 65.4616C61.5567 65.8637 61.6372 66.2658 61.7984 66.6679C61.9595 66.9896 62.2818 67.2308 62.5235 67.3917C63.0875 67.5525 63.4904 67.4721 63.4904 67.4721Z" fill="#263238"/>
<path d="M62.9264 59.1889C62.8458 59.1889 62.9264 58.8672 62.7652 58.3043C62.6041 57.7413 62.2012 56.9371 61.3955 56.2938C60.5898 55.6504 59.2201 55.3287 57.9309 55.8113C56.6418 56.2134 55.5944 57.5805 55.5944 59.1889C55.5944 60.7973 56.6418 62.084 57.9309 62.5665C59.2201 63.049 60.5092 62.7273 61.3955 62.084C62.2012 61.4406 62.6041 60.6364 62.7652 60.0735C62.8458 59.5106 62.8458 59.1889 62.9264 59.1889C62.9264 59.1889 62.9264 59.2693 62.9264 59.4301C62.9264 59.591 62.9264 59.8322 62.8458 60.1539C62.7652 60.7169 62.3624 61.6015 61.4761 62.3252C60.5898 63.049 59.1395 63.4511 57.7698 62.9686C56.3195 62.4861 55.1109 61.0385 55.1109 59.2693C55.1109 57.5001 56.3195 55.9721 57.7698 55.57C59.2201 55.0875 60.6704 55.4896 61.4761 56.2134C62.3624 56.9371 62.7652 57.8217 62.8458 58.3847C62.9264 58.7064 62.9264 58.9476 62.9264 59.1085V59.1889Z" fill="#263238"/>
<path d="M71.9504 58.8671C71.8698 58.8671 71.9504 58.5455 71.7892 57.9825C71.6281 57.4196 71.2252 56.6154 70.4195 56.0525C69.6138 55.4091 68.3247 55.0874 67.1161 55.5699C65.9075 55.972 64.7795 57.3392 64.8601 58.8671C64.8601 60.3951 65.9075 61.6818 67.1161 62.1644C68.3247 62.6469 69.6944 62.3252 70.4195 61.6818C71.2252 61.1189 71.6281 60.3147 71.7892 59.7518C71.8698 59.1888 71.8698 58.8671 71.9504 58.8671C71.9504 58.8671 71.9504 58.9476 71.9504 59.1084C71.9504 59.2692 71.9504 59.5105 71.8698 59.7518C71.7892 60.3147 71.3864 61.1993 70.5001 61.8427C69.6944 62.5665 68.2441 62.9685 66.8744 62.4056C65.5047 61.9231 64.2961 60.4755 64.2961 58.7867C64.2961 57.0979 65.5047 55.5699 66.8744 55.1678C68.2441 54.6853 69.6944 55.0874 70.5001 55.7308C71.3864 56.4546 71.7087 57.2588 71.8698 57.8217C71.9504 58.1434 71.9504 58.3846 71.9504 58.465C71.9504 58.7867 71.9504 58.8671 71.9504 58.8671Z" fill="#263238"/>
<path d="M64.5378 57.9826C64.4572 58.063 64.1349 57.8218 63.6515 57.8218C63.1681 57.8218 62.8458 58.063 62.7652 57.9826C62.6847 57.9022 63.0069 57.4197 63.6515 57.4197C64.2961 57.4197 64.6989 57.9022 64.5378 57.9826Z" fill="#263238"/>
<path d="M55.5138 58.6259C55.5944 58.7063 54.8692 59.3497 53.9024 60.0735C52.9355 60.7972 52.1298 61.2798 52.0492 61.1993C51.9686 61.1189 52.6938 60.4756 53.6606 59.7518C54.6275 59.028 55.4332 58.5455 55.5138 58.6259Z" fill="#263238"/>
<path d="M130.284 59.028C130.284 59.1084 120.938 59.2693 109.497 59.2693C97.975 59.2693 88.7093 59.1888 88.7093 59.028C88.7093 58.9476 98.0556 58.7867 109.497 58.7867C121.018 58.7867 130.284 58.8672 130.284 59.028Z" fill="#263238"/>
<path d="M111.108 63.3707C111.108 63.4511 106.193 63.6119 100.07 63.6119C93.9464 63.6119 89.0316 63.5315 89.0316 63.3707C89.0316 63.2098 93.9464 63.1294 100.07 63.1294C106.113 63.1294 111.108 63.2098 111.108 63.3707Z" fill="#263238"/>
</g>
<defs>
<clipPath id="clip0_14_50">
<rect width="406" height="253" fill="white"/>
</clipPath>
</defs>
</svg>
