<svg width="24" height="24" viewBox="0 0 24 24" fill="none" xmlns="http://www.w3.org/2000/svg">
<path d="M18.8817 18H16.9999C16.4476 18 15.9999 17.5523 15.9999 17C15.9999 16.4477 16.4476 16 16.9999 16H19.4999C19.5589 16 19.6167 16.0051 19.6729 16.0149C19.8009 15.616 19.9199 15.1969 20.0297 14.7575C20.0947 14.4976 20.1528 14.2451 20.2042 14H17.9999C17.4476 14 16.9999 13.5523 16.9999 13C16.9999 12.4477 17.4476 12 17.9999 12H20.4853C20.5073 11.6103 20.5044 11.2492 20.4766 10.9169C20.4334 10.3986 20.0002 10 19.4801 10H9.99985C8.89528 10 7.99985 9.10457 7.99985 8V4.75C7.99985 4.33579 7.66406 4 7.24985 4C6.7458 4 6.31894 4.37168 6.2496 4.87093L4.46433 17.7249C4.45167 17.816 4.44531 17.908 4.44531 18C4.44531 19.1046 5.34074 20 6.44531 20H16.5847C17.2571 20 17.8844 19.6621 18.2545 19.1007C18.4765 18.764 18.6856 18.3971 18.8817 18ZM22.4697 10.7506C22.5747 12.0087 22.4049 13.5029 21.97 15.2425C21.4736 17.2281 20.7945 18.8815 19.9243 20.2015C19.1842 21.3243 17.9294 22 16.5847 22H6.44531C4.23617 22 2.44531 20.2091 2.44531 18C2.44531 17.8159 2.45802 17.6321 2.48334 17.4497L4.26861 4.59579C4.47528 3.10777 5.74755 2 7.24985 2C8.76863 2 9.99985 3.23122 9.99985 4.75V8H19.4801C21.0403 8.00003 22.34 9.19587 22.4697 10.7506Z" fill="#3D3D3D"/>
</svg>
