<svg xmlns="http://www.w3.org/2000/svg" width="154" height="56" viewBox="0 0 154 56" fill="none">
<g clipPath="url(#clip0_10_429)">
<path d="M37.9186 18.7439H46.467C47.4591 18.7306 48.4414 18.9422 49.34 19.3629C50.1496 19.7355 50.846 20.3158 51.3585 21.0449C51.8447 21.7508 52.1009 22.5897 52.0919 23.4468C52.1031 24.2933 51.8373 25.1202 51.335 25.8016C50.8074 26.5118 50.1035 27.0719 49.2929 27.4265C50.1752 27.791 50.9399 28.3916 51.5032 29.1623C52.0393 29.8949 52.3249 30.7809 52.3173 31.6887C52.3282 32.6138 52.061 33.5209 51.5503 34.2925C51.0238 35.0795 50.2952 35.7105 49.4409 36.1191C48.5113 36.5735 47.4882 36.8039 46.4535 36.7919H37.9186V18.7439ZM46.467 26.0707C46.7659 26.0755 47.0626 26.0182 47.3383 25.9024C47.6139 25.7866 47.8625 25.6148 48.0683 25.3979C48.4862 24.9737 48.7205 24.4022 48.7205 23.8067C48.7205 23.2113 48.4862 22.6398 48.0683 22.2156C47.862 21.9993 47.6133 21.828 47.3378 21.7122C47.0623 21.5965 46.7658 21.5388 46.467 21.5428H41.1886V26.0506L46.467 26.0707ZM46.467 33.9661C46.7989 33.9734 47.1284 33.9097 47.4337 33.7791C47.7389 33.6486 48.0126 33.4543 48.2365 33.2092C48.6935 32.706 48.9467 32.0506 48.9467 31.3708C48.9467 30.691 48.6935 30.0356 48.2365 29.5323C48.0112 29.2893 47.7371 29.0965 47.4322 28.9667C47.1273 28.8368 46.7984 28.7728 46.467 28.7788H41.1886V33.9661H46.467Z" fill="#3C3C3C"/>
<path d="M55.1702 24.8664C55.7179 23.8976 56.5363 23.1096 57.5252 22.5991C58.5976 22.0427 59.7924 21.764 61.0004 21.7883V24.7184C60.5499 24.6992 60.1005 24.7745 59.6809 24.9397C59.2614 25.1048 58.8812 25.356 58.5647 25.6772C58.2502 26.0153 58.0056 26.4123 57.8451 26.8453C57.6846 27.2783 57.6113 27.7388 57.6295 28.2002V36.7718H54.3595V28.2002C54.3333 27.0371 54.6129 25.8876 55.1702 24.8664V24.8664Z" fill="#3C3C3C"/>
<path d="M66.2888 21.7883V36.7852H63.0188V21.7883H66.2888Z" fill="#3C3C3C"/>
<path d="M74.4302 41.2964V38.3629H77.0038C77.5851 38.3675 78.1569 38.2153 78.659 37.9223C79.1543 37.6383 79.5671 37.2301 79.8566 36.7381C80.1468 36.2535 80.3057 35.7016 80.3175 35.1368C79.7771 35.7403 79.1262 36.2347 78.3999 36.5935C77.5174 37.026 76.5431 37.2384 75.5606 37.2124C74.2438 37.2305 72.949 36.8748 71.8263 36.1864C70.7264 35.5074 69.833 34.5408 69.2426 33.3909C68.624 32.196 68.3076 30.8677 68.3208 29.5223C68.3103 28.1734 68.6686 26.8473 69.357 25.6873C70.0345 24.5297 71.0029 23.5695 72.1661 22.9018C73.3344 22.2272 74.6624 21.8786 76.0114 21.8926C77.3432 21.8787 78.6521 22.2389 79.7894 22.9321C80.9155 23.6081 81.8438 24.5688 82.4807 25.7175C83.1366 26.8836 83.4753 28.2013 83.4631 29.5391V35.3118C83.4631 37.1934 82.9439 38.6635 81.9054 39.722C80.867 40.7806 79.2365 41.311 77.0139 41.3132L74.4302 41.2964ZM72.2872 31.9343C72.6571 32.6332 73.2019 33.2243 73.8684 33.6499C74.5062 34.0629 75.2498 34.2827 76.0097 34.2827C76.7696 34.2827 77.5132 34.0629 78.151 33.6499C78.8175 33.2243 79.3623 32.6332 79.7322 31.9343C80.1168 31.192 80.3175 30.3683 80.3175 29.5323C80.3175 28.6964 80.1168 27.8727 79.7322 27.1304C79.3628 26.4347 78.8176 25.8479 78.151 25.4282C77.51 25.0239 76.7676 24.8093 76.0097 24.8093C75.2518 24.8093 74.5094 25.0239 73.8684 25.4282C73.2017 25.8479 72.6566 26.4347 72.2872 27.1304C71.9026 27.8727 71.7019 28.6964 71.7019 29.5323C71.7019 30.3683 71.9026 31.192 72.2872 31.9343V31.9343Z" fill="#3C3C3C"/>
<path d="M85.4816 18.7439H88.7516V23.9514C89.0601 23.3075 89.5656 22.7785 90.1948 22.441C91.0767 21.9954 92.0564 21.7785 93.0439 21.8103C94.0315 21.842 94.9952 22.1213 95.8466 22.6226C96.7376 23.1775 97.4655 23.9587 97.956 24.8866C98.4917 25.9078 98.7624 27.0472 98.7432 28.2002V36.7718H95.4732V28.2002C95.4945 27.7372 95.4237 27.2746 95.2649 26.8392C95.1061 26.4038 94.8624 26.0043 94.5481 25.6637C93.8867 25.0475 93.0163 24.7048 92.1124 24.7048C91.2084 24.7048 90.3381 25.0475 89.6767 25.6637C89.3623 26.0043 89.1187 26.4038 88.9599 26.8392C88.801 27.2746 88.7302 27.7372 88.7516 28.2002V36.7718H85.4816V18.7439Z" fill="#3C3C3C"/>
<path d="M104.045 18.7439V22.1079H106.736V25.0414H104.045V36.7684H100.772V18.7439H104.045Z" fill="#3C3C3C"/>
<path d="M111.813 33.5826C112.271 34.0637 112.953 34.3025 113.855 34.3025C114.443 34.3333 115.026 34.1715 115.514 33.8416C115.704 33.7133 115.859 33.5405 115.967 33.3382C116.075 33.1359 116.132 32.9103 116.133 32.681C116.142 32.4874 116.11 32.2939 116.04 32.1132C115.97 31.9324 115.863 31.7683 115.726 31.6315C115.438 31.3574 115.093 31.1496 114.716 31.0226C114.316 30.8779 113.758 30.7097 113.034 30.5146C112.202 30.3269 111.388 30.0703 110.599 29.7476C109.963 29.4644 109.411 29.0217 108.997 28.4625C108.513 27.7622 108.276 26.9206 108.324 26.0707C108.31 25.2856 108.546 24.5163 108.997 23.874C109.486 23.2006 110.144 22.668 110.905 22.3299C111.758 21.9426 112.686 21.7496 113.623 21.7647C114.584 21.7508 115.535 21.9628 116.398 22.3837C117.189 22.7612 117.866 23.3416 118.36 24.0657C118.825 24.7427 119.073 25.5454 119.07 26.3667H115.682C115.677 26.1401 115.62 25.9175 115.516 25.7159C115.413 25.5142 115.264 25.3388 115.083 25.2028C114.677 24.8618 114.16 24.6811 113.63 24.6948C113.112 24.6763 112.601 24.8147 112.163 25.0918C111.989 25.1902 111.843 25.3322 111.741 25.5039C111.638 25.6755 111.582 25.8708 111.578 26.0707C111.572 26.2452 111.606 26.4186 111.676 26.5786C111.745 26.7385 111.85 26.881 111.981 26.9958C112.278 27.2529 112.62 27.4525 112.991 27.5845C113.399 27.7325 113.959 27.8974 114.673 28.079C115.52 28.2916 116.354 28.5567 117.169 28.873C117.816 29.1361 118.387 29.5585 118.827 30.1008C119.306 30.735 119.544 31.518 119.5 32.311C119.51 33.2082 119.243 34.0867 118.737 34.8273C118.201 35.5901 117.474 36.1972 116.627 36.5867C115.68 37.0272 114.644 37.2468 113.599 37.2292C112.571 37.2427 111.557 36.9901 110.656 36.4959C109.785 36.0271 109.061 35.3277 108.562 34.4744C108.063 33.621 107.808 32.6468 107.826 31.6584H111.096C111.083 32.0105 111.139 32.3619 111.262 32.6922C111.385 33.0225 111.572 33.3251 111.813 33.5826V33.5826Z" fill="#3C3C3C"/>
<path d="M136.15 33.6399C135.56 34.724 134.671 35.616 133.589 36.21C132.4 36.8095 131.086 37.1217 129.754 37.1217C128.422 37.1217 127.109 36.8095 125.919 36.21C124.837 35.616 123.949 34.724 123.359 33.6399C122.734 32.4563 122.423 31.1326 122.454 29.7948V18.7439H125.724V30.1547C125.715 30.8739 125.899 31.5823 126.256 32.2068C126.599 32.8142 127.101 33.3166 127.709 33.66C128.337 34.0085 129.043 34.1913 129.761 34.1913C130.479 34.1913 131.185 34.0085 131.813 33.66C132.42 33.3156 132.922 32.8135 133.267 32.2068C133.622 31.5819 133.806 30.8737 133.798 30.1547V18.7439H137.068V29.7948C137.095 31.1338 136.779 32.4575 136.15 33.6399V33.6399Z" fill="#FF6364"/>
<path d="M139.847 25.6873C140.481 24.5364 141.41 23.575 142.538 22.9018C143.68 22.2224 144.988 21.873 146.316 21.8926C147.665 21.8795 148.993 22.2279 150.161 22.9018C151.324 23.5697 152.291 24.53 152.967 25.6873C153.657 26.8469 154.016 28.1731 154.007 29.5223C154.017 30.8708 153.669 32.1978 152.998 33.3674C152.351 34.5153 151.425 35.4815 150.306 36.1763C149.379 36.7701 148.317 37.1211 147.218 37.1969C146.119 37.2727 145.019 37.071 144.018 36.6103C143.306 36.3284 142.663 35.8944 142.135 35.3387V41.293H138.865V29.5189C138.856 28.1783 139.194 26.8583 139.847 25.6873ZM142.589 31.9343C142.956 32.6337 143.5 33.225 144.167 33.6499C144.805 34.0628 145.549 34.2825 146.31 34.2825C147.07 34.2825 147.814 34.0628 148.452 33.6499C149.118 33.2241 149.662 32.633 150.03 31.9343C150.415 31.192 150.616 30.3683 150.616 29.5324C150.616 28.6964 150.415 27.8727 150.03 27.1304C149.662 26.435 149.118 25.8481 148.452 25.4282C147.811 25.024 147.068 24.8095 146.31 24.8095C145.551 24.8095 144.808 25.024 144.167 25.4282C143.5 25.8471 142.956 26.4342 142.589 27.1304C142.202 27.872 142 28.696 142 29.5324C142 30.3687 142.202 31.1927 142.589 31.9343V31.9343Z" fill="#FF6364"/>
<path d="M28.5258 35.2377C28.5258 37.049 28.1683 38.8424 27.4737 40.5152C26.7791 42.188 25.7611 43.7073 24.4781 44.9858C23.1951 46.2644 21.6723 47.2771 19.9971 47.966C18.3219 48.6548 16.5271 49.0062 14.7158 49C7.10938 48.9731 1.00674 42.6924 1.00674 35.0864V16.2477C1.00571 15.8314 1.03381 15.4155 1.09085 15.0031C1.46072 16.9942 2.51552 18.7932 4.07248 20.0883C5.62943 21.3835 7.59044 22.0932 9.6157 22.0944C10.1084 22.0941 10.6001 22.0525 11.0859 21.97C11.2978 21.933 11.5064 21.8892 11.715 21.8388C12.1204 21.7337 12.5315 21.6517 12.9463 21.5932C13.5484 21.512 14.1553 21.4716 14.7629 21.4721C16.5707 21.4717 18.3608 21.8274 20.031 22.5191C21.7013 23.2108 23.2188 24.2248 24.4969 25.5032C25.7751 26.7816 26.7887 28.2993 27.48 29.9696C28.1713 31.6399 28.5267 33.43 28.5258 35.2377V35.2377Z" fill="#FF6364"/>
<path d="M18.0127 11.2152C16.9844 9.63056 15.4956 8.39871 13.7465 7.6852C11.9973 6.97169 10.0717 6.81071 8.22833 7.22391C6.385 7.6371 4.71233 8.60466 3.43517 9.99653C2.158 11.3884 1.33756 13.1379 1.08411 15.0098C1.45558 17.0008 2.51197 18.7991 4.07018 20.0931C5.6284 21.387 7.59023 22.095 9.61569 22.0945C10.1084 22.0941 10.6001 22.0525 11.0858 21.97L12.122 21.7278C13.9558 21.3698 15.8431 21.3881 17.6696 21.7816C18.7979 20.2654 19.435 18.4401 19.4951 16.5511C19.5553 14.6622 19.0356 12.8 18.006 11.2152H18.0127Z" fill="#FEAB75"/>
<path opacity="0.2" d="M14.4332 43.2239L22.736 37.1687C23.1053 36.897 23.4055 36.5424 23.6124 36.1333C23.8193 35.7242 23.9272 35.2723 23.9272 34.8138C23.9272 34.3554 23.8193 33.9034 23.6124 33.4944C23.4055 33.0853 23.1053 32.7307 22.736 32.459L14.4332 26.4038C13.998 26.0868 13.4837 25.8964 12.9471 25.8534C12.4104 25.8105 11.8724 25.9167 11.3923 26.1604C10.9123 26.404 10.509 26.7757 10.2269 27.2342C9.94482 27.6927 9.795 28.2203 9.79398 28.7586V40.8489C9.79127 41.389 9.93837 41.9192 10.219 42.3806C10.4995 42.8421 10.9026 43.2167 11.3833 43.4628C11.8641 43.7089 12.4036 43.8168 12.942 43.7747C13.4805 43.7325 13.9966 43.5419 14.4332 43.2239V43.2239Z" fill="black"/>
<path d="M13.2154 43.2743L21.5182 37.2191C21.8875 36.9474 22.1877 36.5928 22.3947 36.1837C22.6016 35.7747 22.7094 35.3227 22.7094 34.8643C22.7094 34.4058 22.6016 33.9539 22.3947 33.5448C22.1877 33.1357 21.8875 32.7811 21.5182 32.5094L13.2154 26.4542C12.7803 26.1372 12.2659 25.9468 11.7293 25.9038C11.1927 25.8609 10.6546 25.9671 10.1746 26.2108C9.69452 26.4544 9.29119 26.8261 9.00912 27.2846C8.72705 27.7431 8.57723 28.2707 8.57621 28.809V40.8993C8.57349 41.4394 8.7206 41.9696 9.00118 42.431C9.28176 42.8925 9.68482 43.2671 10.1656 43.5132C10.6463 43.7593 11.1858 43.8673 11.7243 43.8251C12.2627 43.7829 12.7789 43.5923 13.2154 43.2743Z" fill="white"/>
</g>
<defs>
<clipPath id="clip0_10_429">
<rect width="153" height="42" fill="white" transform="translate(1 7)"/>
</clipPath>
</defs>
</svg>
