<svg width="200" height="226" viewBox="0 0 200 226" fill="none" xmlns="http://www.w3.org/2000/svg">
<g clipPath="url(#clip0_242_4474)">
<rect width="200" height="226" rx="16" fill="#C400C4"/>
<path d="M148.81 -82.3362C190.74 -87.7248 287.234 -34.102 292.756 6.81677C298.277 47.7355 214.121 114.855 172.191 120.243C130.261 125.632 91.7933 96.8288 86.2715 55.9101C80.7497 14.9914 106.88 -76.9476 148.81 -82.3362Z" fill="#9A0001" fill-opacity="0.12"/>
<path d="M170.767 -84.5209C207.2 -89.203 290.69 -45.2312 295.265 -11.3294C299.84 22.5723 226.414 78.657 189.981 83.3391C153.548 88.0213 120.304 64.3341 115.729 30.4324C111.154 -3.46937 134.333 -79.8387 170.767 -84.5209Z" fill="#9A0001" fill-opacity="0.12"/>
<path d="M22.0326 170.272C54.6231 165.98 129.307 206.287 133.4 237.362C137.492 268.438 71.8109 319.847 39.2203 324.139C6.62981 328.431 -23.1075 306.718 -27.1999 275.643C-31.2922 244.567 -10.558 174.564 22.0326 170.272Z" fill="#9A0001" fill-opacity="0.04"/>
</g>
<defs>
<clipPath id="clip0_242_4474">
<rect width="200" height="226" rx="16" fill="white"/>
</clipPath>
</defs>
</svg>
