<svg width="34" height="35" viewBox="0 0 34 35" fill="none" xmlns="http://www.w3.org/2000/svg">
<path d="M27.3884 21.2784C26.3173 21.2792 25.2625 21.5407 24.315 22.0403C23.3675 22.5398 22.5557 23.2624 21.9498 24.1457L12.7288 19.9821C13.3837 18.4006 13.3862 16.6242 12.7358 15.0408L21.9442 10.8559C22.8421 12.1547 24.1759 13.0886 25.7034 13.4882C27.231 13.8878 28.8512 13.7267 30.2701 13.0341C31.689 12.3415 32.8127 11.1632 33.4374 9.71307C34.062 8.26292 34.1462 6.63693 33.6747 5.13002C33.2032 3.62311 32.2072 2.33511 30.8674 1.49964C29.5276 0.664176 27.9327 0.336584 26.372 0.576289C24.8114 0.815994 23.3883 1.60712 22.361 2.80616C21.3337 4.0052 20.7701 5.53274 20.7726 7.11169C20.7786 7.48541 20.8165 7.85793 20.8859 8.22519L11.0968 12.6735C10.1566 11.7927 8.97956 11.2056 7.71032 10.9845C6.44108 10.7634 5.13489 10.9179 3.95223 11.4289C2.76957 11.94 1.76195 12.7854 1.05315 13.8612C0.344351 14.9371 -0.034751 16.1965 -0.0375817 17.4849C-0.0404124 18.7732 0.333151 20.0343 1.03722 21.1133C1.74128 22.1923 2.74518 23.0421 3.92558 23.5583C5.10599 24.0745 6.41148 24.2347 7.68168 24.0192C8.95188 23.8037 10.1315 23.2218 11.0755 22.3451L20.8902 26.7764C20.822 27.1434 20.7846 27.5154 20.7782 27.8885C20.778 29.1963 21.1655 30.4748 21.8919 31.5623C22.6183 32.6497 23.6509 33.4974 24.859 33.998C26.0672 34.4986 27.3967 34.6296 28.6793 34.3746C29.962 34.1195 31.1402 33.4898 32.0649 32.565C32.9897 31.6403 33.6194 30.4621 33.8744 29.1795C34.1295 27.8968 33.9985 26.5673 33.4979 25.3591C32.9973 24.151 32.1496 23.1184 31.0621 22.392C29.9747 21.6656 28.6962 21.2781 27.3884 21.2784ZM27.3884 3.33344C28.1357 3.33316 28.8664 3.55451 29.4879 3.9695C30.1094 4.38449 30.5939 4.97447 30.8801 5.66483C31.1663 6.3552 31.2413 7.11492 31.0957 7.84792C30.95 8.58092 30.5903 9.25428 30.062 9.78282C29.5336 10.3114 28.8604 10.6713 28.1275 10.8172C27.3945 10.9631 26.6348 10.8884 25.9443 10.6025C25.2538 10.3165 24.6637 9.83228 24.2484 9.21092C23.8332 8.58956 23.6116 7.85902 23.6116 7.11169C23.6123 6.11011 24.0104 5.14975 24.7185 4.44139C25.4266 3.73304 26.3868 3.33457 27.3884 3.33344ZM6.61159 21.2784C5.86426 21.2786 5.13364 21.0573 4.51212 20.6423C3.8906 20.2273 3.40612 19.6373 3.11993 18.947C2.83375 18.2566 2.75872 17.4969 2.90435 16.7639C3.04997 16.0309 3.4097 15.3575 3.93804 14.829C4.46639 14.3004 5.1396 13.9405 5.87255 13.7946C6.6055 13.6487 7.36525 13.7234 8.05572 14.0093C8.74618 14.2952 9.33635 14.7795 9.75157 15.4009C10.1668 16.0222 10.3884 16.7528 10.3884 17.5001C10.3873 18.5016 9.98907 19.4617 9.28106 20.17C8.57305 20.8783 7.61305 21.2769 6.61159 21.2784ZM27.3884 31.6668C26.6411 31.6668 25.9107 31.4452 25.2893 31.03C24.668 30.6149 24.1837 30.0248 23.8978 29.3344C23.6118 28.644 23.537 27.8843 23.6828 27.1514C23.8285 26.4185 24.1884 25.7453 24.7168 25.2169C25.2452 24.6885 25.9184 24.3287 26.6513 24.1829C27.3842 24.0371 28.1439 24.1119 28.8343 24.3979C29.5247 24.6838 30.1148 25.1681 30.5299 25.7894C30.9451 26.4108 31.1667 27.1413 31.1667 27.8885C31.1659 28.8904 30.7676 29.8509 30.0592 30.5593C29.3508 31.2677 28.3902 31.666 27.3884 31.6668Z" fill="#3D3D3D"/>
</svg>
