<svg width="24" height="24" viewBox="0 0 24 24" fill="none" xmlns="http://www.w3.org/2000/svg">
<path d="M5.76684 7.85033C4.07694 8.77702 3.49837 10.8294 4.47412 12.4344C5.20403 13.6362 6.59845 14.2464 7.96242 14.0882L6.23371 15.3375C4.54381 16.2642 3.96524 18.3165 4.94099 19.9216C5.91578 21.5266 8.07637 22.0765 9.76627 21.1498L17.788 16.7497C19.477 15.823 20.0556 13.7706 19.0808 12.1656C18.2961 10.8751 16.7465 10.2666 15.2909 10.5594L17.3212 9.26252C19.0101 8.33584 19.5887 6.28349 18.6139 4.67844C17.6381 3.07339 15.4785 2.52348 13.7886 3.45016L5.76684 7.85033Z" stroke="#3D3D3D" strokeWidth="2" strokeLinejoin="round"/>
<path d="M13.9225 11.9764C14.0258 12.036 14.0258 12.1852 13.9225 12.2448L10.5357 14.2002C10.4324 14.2598 10.3032 14.1853 10.3032 14.0659L10.3032 10.1552C10.3032 10.0359 10.4324 9.96134 10.5357 10.021L13.9225 11.9764Z" fill="CurrentColor"/>
</svg>
