<svg width="760" height="329" viewBox="0 0 760 329" fill="none" xmlns="http://www.w3.org/2000/svg">
<g clipPath="url(#clip0_14_12)">
<path d="M235.12 278.864L230.484 282.672L236.895 290.477L241.531 286.668L235.12 278.864Z" fill="#FD521B"/>
<path d="M444.029 28.3471L439.393 32.1559L445.804 39.9602L450.44 36.1514L444.029 28.3471Z" fill="#FFC849"/>
<path d="M298.811 95.0116L294.175 98.8204L300.586 106.625L305.222 102.816L298.811 95.0116Z" fill="#FD521B"/>
<path d="M663.644 177.195L660.644 171.999L651.898 177.049L654.898 182.245L663.644 177.195Z" fill="#FD521B"/>
<path d="M687.682 34.1734L684.682 28.9774L675.935 34.0274L678.935 39.2234L687.682 34.1734Z" fill="#FFD4DE"/>
<path d="M371.657 204.572L374.657 199.376L365.911 194.326L362.911 199.522L371.657 204.572Z" fill="#FFD4DE"/>
<path d="M226.362 227.171L224.824 221.372L215.061 223.961L216.6 229.761L226.362 227.171Z" fill="#FFD4DE"/>
<path d="M462.456 301.002L459.456 295.806L450.709 300.856L453.709 306.052L462.456 301.002Z" fill="#FFD4DE"/>
<path d="M359.855 19.1734L356.855 13.9774L348.109 19.0274L351.109 24.2234L359.855 19.1734Z" fill="#FFD4DE"/>
<path d="M701.571 293.217L704.571 288.021L695.824 282.971L692.824 288.167L701.571 293.217Z" fill="#FD521B"/>
<path d="M284.768 324.199L289.25 328.188L295.964 320.643L291.482 316.654L284.768 324.199Z" fill="#FD521B"/>
<path d="M66.8819 7.52304L71.3639 11.5118L78.0783 3.96714L73.5963 -0.0216592L66.8819 7.52304Z" fill="#FD521B"/>
<path d="M6.40775 259.79L11.0439 255.982L4.63246 248.177L-0.0037388 251.986L6.40775 259.79Z" fill="#FD521B"/>
<path d="M616.024 282.283L611.388 286.092L617.799 293.897L622.436 290.088L616.024 282.283Z" fill="#FFC849"/>
<path d="M759.238 183.398L754.412 179.833L748.411 187.957L753.236 191.522L759.238 183.398Z" fill="#FFC849"/>
<path d="M51.2009 98.58L46.7819 94.5216L39.9503 101.96L44.3693 106.019L51.2009 98.58Z" fill="#FFC849"/>
<path d="M223.705 49.3982L219.286 45.3398L212.454 52.7785L216.873 56.8369L223.705 49.3982Z" fill="#FEA419"/>
<path d="M554.431 55.0962L550.012 51.0378L543.18 58.4765L547.599 62.5349L554.431 55.0962Z" fill="#FEA419"/>
</g>
<defs>
<clipPath id="clip0_14_12">
<rect width="759.2" height="328.2" fill="white"/>
</clipPath>
</defs>
</svg>
