<svg width="20" height="20" viewBox="0 0 20 20" fill="none" xmlns="http://www.w3.org/2000/svg">
<path fill-rule="evenodd" clip-rule="evenodd" d="M7 0C5.34315 0 4 1.34315 4 3V3.17071C2.83481 3.58254 2 4.69378 2 6V6.17071C0.834807 6.58254 0 7.69378 0 9V17C0 18.6569 1.34315 20 3 20H17C18.6569 20 20 18.6569 20 17V9C20 7.69378 19.1652 6.58254 18 6.17071V6C18 4.69378 17.1652 3.58254 16 3.17071V3C16 1.34315 14.6569 0 13 0H7ZM15.001 5C15.0007 5 15.0003 5 15 5L14 5H6L5 5C4.99967 5 4.99934 5 4.99901 5C4.44718 5.00053 4 5.44804 4 6H16C16 5.44804 15.5528 5.00053 15.001 5ZM6 3H14C14 2.44772 13.5523 2 13 2H7C6.44772 2 6 2.44772 6 3ZM17 8L17.0014 8C17.553 8.00075 18 8.44818 18 9V17C18 17.5523 17.5523 18 17 18H3C2.44772 18 2 17.5523 2 17V9C2 8.44804 2.44718 8.00053 2.99901 8H3L4 8H16L17 8Z" fill="CurrentColor"/>
</svg>
